<?xml version="1.0"?>
<svg xmlns="http://www.w3.org/2000/svg" xmlns:xlink="http://www.w3.org/1999/xlink" xmlns:svgjs="http://svgjs.com/svgjs" version="1.1" width="512" height="512" x="0" y="0" viewBox="0 0 512 512" style="enable-background:new 0 0 512 512" xml:space="preserve" class=""><g><g xmlns="http://www.w3.org/2000/svg"><path d="m349.36 219.986c-6.861-6.861-15.983-10.64-25.686-10.64h-6.02c-8.284.001-15-6.715-15-15v-6.02c0-9.703-3.779-18.825-10.64-25.686s-15.984-10.64-25.688-10.64c-20.03 0-36.326 16.296-36.327 36.327l.001 93.673h93.673c20.031 0 36.327-16.296 36.327-36.326 0-9.704-3.779-18.827-10.64-25.688z" fill="#262626" data-original="#000000" style="" class=""/><g><path d="m512 241.274v-166.274c.001-3.978-1.58-7.793-4.393-10.607l-19.394-19.393-60.984 60.985 9.393 9.393c5.858 5.858 5.858 15.355 0 21.213s-15.355 5.858-21.213 0l-40-40c-5.858-5.858-5.858-15.355 0-21.213s15.355-5.858 21.213 0l9.393 9.393 60.985-60.984-19.394-19.394c-2.813-2.813-6.628-4.394-10.606-4.393h-166.274c-3.978 0-7.794 1.58-10.607 4.393l-255.726 255.726c-5.858 5.858-5.858 15.355 0 21.213l226.274 226.274c5.858 5.858 15.355 5.858 21.213 0l255.726-255.726c2.814-2.812 4.394-6.627 4.394-10.606zm-188.327 70.726h-108.673c-4.142 0-7.892-1.679-10.607-4.393-2.714-2.715-4.393-6.465-4.393-10.607v-108.673c0-36.572 29.754-66.326 66.326-66.326 17.717 0 34.373 6.899 46.9 19.427 10.513 10.513 17.063 23.934 18.897 38.449 14.515 1.834 27.936 8.383 38.449 18.897 12.528 12.528 19.427 29.184 19.427 46.9.001 36.572-29.753 66.326-66.326 66.326z" fill="#262626" data-original="#000000" style="" class=""/><path d="m507.607 25.607c5.858-5.858 5.858-15.355 0-21.213s-15.355-5.858-21.213 0l-19.394 19.393 21.213 21.213z" fill="#262626" data-original="#000000" style="" class=""/></g></g></g></svg>
